<svg width="18" height="24" viewBox="0 0 18 24" fill="none" xmlns="http://www.w3.org/2000/svg">
<g clip-path="url(#clip0_2_42)" filter="url(#filter0_d_2_42)">
<path fill-rule="evenodd" clip-rule="evenodd" d="M9 6.44452C8.03804 6.44452 7.25973 5.70036 7.25973 4.78061C7.25973 3.86295 8.03804 3.11879 9 3.11879C9.95977 3.11879 10.7381 3.86295 10.7381 4.78061C10.7381 5.70036 9.95977 6.44452 9 6.44452ZM9 0C6.23874 0 4 2.14051 4 4.78061C4 6.70791 6.6585 12.471 8.09926 15.4497C8.45343 16.1834 9.54438 16.1834 9.90074 15.4497C11.3393 12.471 14 6.70791 14 4.78061C14 2.14051 11.7613 0 9 0Z" fill="white"/>
</g>
<defs>
<filter id="filter0_d_2_42" x="0" y="0" width="18" height="24" filterUnits="userSpaceOnUse" color-interpolation-filters="sRGB">
<feFlood flood-opacity="0" result="BackgroundImageFix"/>
<feColorMatrix in="SourceAlpha" type="matrix" values="0 0 0 0 0 0 0 0 0 0 0 0 0 0 0 0 0 0 127 0" result="hardAlpha"/>
<feOffset dy="4"/>
<feGaussianBlur stdDeviation="2"/>
<feComposite in2="hardAlpha" operator="out"/>
<feColorMatrix type="matrix" values="0 0 0 0 0 0 0 0 0 0 0 0 0 0 0 0 0 0 0.25 0"/>
<feBlend mode="normal" in2="BackgroundImageFix" result="effect1_dropShadow_2_42"/>
<feBlend mode="normal" in="SourceGraphic" in2="effect1_dropShadow_2_42" result="shape"/>
</filter>
<clipPath id="clip0_2_42">
<rect width="10" height="16" fill="white" transform="translate(4)"/>
</clipPath>
</defs>
</svg>
